# xmcd CD database file
#
# Track frame offsets:
#	150
#	17770
#	38592
#	53295
#	72787
#	91302
#	110242
#	125887
#	148097
#	167675
#	185875
#	206132
#
# Disc length: 3010 seconds
#
# Revision: 0
# Processed by: cddbd v1.5.1PL2 Copyright (c) Steve Scherf et al.
# Submitted via: CDex 1.50
#
DISCID=af0bc00c
DTITLE=因幡晃 - スペシャル・セレクション
DYEAR=1900
DGENRE=J-Pop
TTITLE0=わかって下さい
TTITLE1=そして愛…
TTITLE2=風のハミング
TTITLE3=結婚しよう
TTITLE4=ヴィオロンの響き
TTITLE5=サブリナ
TTITLE6=別涙
TTITLE7=不公平
TTITLE8=忍冬
TTITLE9=ためらいトワイライト
TTITLE10=涙あふれて
TTITLE11=夕映えを待ちながら
EXTD=
EXTT0=
EXTT1=
EXTT2=
EXTT3=
EXTT4=
EXTT5=
EXTT6=
EXTT7=
EXTT8=
EXTT9=
EXTT10=
EXTT11=
PLAYORDER=
